{
  "accessors": [
    {
      "bufferView": 1,
      "componentType": 5126,
      "count": 605,
      "max": [
        4.106790065765381,
        4.500669956207275,
        10.012598991394043
      ],
      "min": [
        -2.3907039165496826,
        -1.6487849950790405,
        3.9588229656219482
      ],
      "type": "VEC3"
    },
    {
      "bufferView": 1,
      "byteOffset": 7260,
      "componentType": 5126,
      "count": 605,
      "max": [
        0.9978892803192139,
        0.929518461227417,
        0.9911081790924072
      ],
      "min": [
        -0.9988436698913574,
        -0.9435690641403198,
        -0.9911081790924072
      ],
      "type": "VEC3"
    },
    {
      "bufferView": 0,
      "componentType": 5125,
      "count": 912,
      "type": "SCALAR"
    },
    {
      "bufferView": 1,
      "byteOffset": 14520,
      "componentType": 5126,
      "count": 5280,
      "max": [
        2.574389934539795,
        3.1146109104156494,
        7.63970422744751
      ],
      "min": [
        -2.845151901245117,
        -2.7806780338287354,
        0.17081399261951447
      ],
      "type": "VEC3"
    },
    {
      "bufferView": 1,
      "byteOffset": 77880,
      "componentType": 5126,
      "count": 5280,
      "max": [
        0.9964064359664917,
        0.9991745948791504,
        0.9997403025627136
      ],
      "min": [
        -0.9964064359664917,
        -0.9992735385894775,
        -0.9997403025627136
      ],
      "type": "VEC3"
    },
    {
      "bufferView": 0,
      "byteOffset": 3648,
      "componentType": 5125,
      "count": 5280,
      "type": "SCALAR"
    }
  ],
  "asset": {
    "extras": {
      "author": "calebcram (https://sketchfab.com/calebcram)",
      "license": "CC-BY-4.0 (http://creativecommons.org/licenses/by/4.0/)",
      "source": "https://sketchfab.com/3d-models/grapes-low-poly-e376f374aabc4a468f033ad78c3eab14",
      "title": "Grapes - Low Poly"
    },
    "generator": "Sketchfab-12.66.0",
    "version": "2.0"
  },
  "bufferViews": [
    {
      "buffer": 0,
      "byteLength": 24768,
      "name": "floatBufferViews",
      "target": 34963
    },
    {
      "buffer": 0,
      "byteLength": 141240,
      "byteOffset": 24768,
      "byteStride": 12,
      "name": "floatBufferViews",
      "target": 34962
    }
  ],
  "buffers": [
    {
      "byteLength": 166008,
      "uri": "scene.bin"
    }
  ],
  "materials": [
    {
      "doubleSided": true,
      "name": "4CAF50",
      "pbrMetallicRoughness": {
        "baseColorFactor": [
          0.298039,
          0.686275,
          0.313726,
          1.0
        ],
        "metallicFactor": 0.0,
        "roughnessFactor": 0.8434915419926713
      }
    },
    {
      "doubleSided": true,
      "name": "673AB7",
      "pbrMetallicRoughness": {
        "baseColorFactor": [
          0.403922,
          0.227451,
          0.717647,
          1.0
        ],
        "metallicFactor": 0.0,
        "roughnessFactor": 0.8434915419926713
      }
    }
  ],
  "meshes": [
    {
      "name": "Object_0",
      "primitives": [
        {
          "attributes": {
            "NORMAL": 1,
            "POSITION": 0
          },
          "indices": 2,
          "material": 0,
          "mode": 4
        }
      ]
    },
    {
      "name": "Object_1",
      "primitives": [
        {
          "attributes": {
            "NORMAL": 4,
            "POSITION": 3
          },
          "indices": 5,
          "material": 1,
          "mode": 4
        }
      ]
    }
  ],
  "nodes": [
    {
      "children": [
        1
      ],
      "matrix": [
        1.0,
        0.0,
        0.0,
        0.0,
        0.0,
        2.220446049250313e-16,
        -1.0,
        0.0,
        0.0,
        1.0,
        2.220446049250313e-16,
        0.0,
        0.0,
        0.0,
        0.0,
        1.0
      ],
      "name": "Sketchfab_model"
    },
    {
      "children": [
        2,
        3
      ],
      "name": "Grapes_01.obj.cleaner.materialmerger.gles"
    },
    {
      "mesh": 0,
      "name": "Object_2"
    },
    {
      "mesh": 1,
      "name": "Object_3"
    }
  ],
  "scene": 0,
  "scenes": [
    {
      "name": "Sketchfab_Scene",
      "nodes": [
        0
      ]
    }
  ]
}
